# xmcd
#
# Track frame offsets: 
#        150
#        10363
#        26046
#        36633
#        49141
#        61050
#        71483
#        83090
#        94245
#        105520
#        121212
#        132150
#        146727
#        158439
#        172227
#        184298
#        194780
#        209035
#        220224
#        235143
#        249092
#        260016
#        273288
#        288311
#        298004
#        308547
#        321426
#        335281
#
# Disc length: 4627 seconds
#
# Revision: 0
# Processed by: cddbd v1.5.2PL0 Copyright (c) Steve Scherf et al.
# Submitted via: ExactAudioCopy v0.95b4
#
DISCID=ae12111c
DTITLE=Don Gibson - Icons CD2
DYEAR=2007
DGENRE=Country
TTITLE0=SEA OF HEARTBREAK
TTITLE1=SWEET DREAMS
TTITLE2=COUNTRY GREEN
TTITLE3=I LOVE YOU BECAUSE
TTITLE4=TODAY I STARTED LOVING YOU AGAIN
TTITLE5=JUST ONE TIME
TTITLE6=MY ELUSIVE DREAMS
TTITLE7=MOVE IT ON OVER
TTITLE8=GAMES PEOPLE PLAY
TTITLE9=YESTERDAY JUST PASSED MY WAY AGAIN
TTITLE10=GIVE MYSELF A PARTY
TTITLE11=YOU'VE GOT A PLACE IN MY HEART
TTITLE12=IS THE BEST I'M GONNA FEEL
TTITLE13=MANSION ON THE HILL
TTITLE14=I WANNA LIVE
TTITLE15=FUNNY FAMILIAR FORGOTTEN FEELINGS
TTITLE16=YOU WIN AGAIN
TTITLE17=I WASHED MY FACE IN THE MORNING DEW
TTITLE18=YOU GAVE ME A MOUNTAIN
TTITLE19=SHE CHEATS ON ME
TTITLE20=WHY YOU BEEN GONE SO LONG
TTITLE21=THERE GOES MY EVERYTHING
TTITLE22=(I HEARD THAT) LONESOME WHISTLE
TTITLE23=DON'T TELL ME YOUR TROUBLES
TTITLE24=LONESOME NUMBER ONE
TTITLE25=THE VERY THOUGHT OF LOSING YOU
TTITLE26=SHE IS
TTITLE27=FOR THE LAST TIME
EXTD=
EXTT0=
EXTT1=
EXTT2=
EXTT3=
EXTT4=
EXTT5=
EXTT6=
EXTT7=
EXTT8=
EXTT9=
EXTT10=
EXTT11=
EXTT12=
EXTT13=
EXTT14=
EXTT15=
EXTT16=
EXTT17=
EXTT18=
EXTT19=
EXTT20=
EXTT21=
EXTT22=
EXTT23=
EXTT24=
EXTT25=
EXTT26=
EXTT27=
PLAYORDER=
